<svg width="28" height="23" viewBox="0 0 28 23" version="1.1" xmlns="http://www.w3.org/2000/svg" xmlns:xlink="http://www.w3.org/1999/xlink">
<title>Group</title>
<desc>Created using Figma</desc>
<g id="Canvas" transform="translate(7141 -9387)">
<g id="Group">
<g id="Vector">
<use xlink:href="#path0_fill" transform="translate(-7141 9387)" fill="#2B2B2B"/>
</g>
<g id="Vector">
<use xlink:href="#path1_fill" transform="translate(-7141 9397.58)" fill="#2B2B2B"/>
</g>
<g id="Vector">
<use xlink:href="#path2_fill" transform="translate(-7141 9408.19)" fill="#2B2B2B"/>
</g>
</g>
</g>
<defs>
<path id="path0_fill" d="M 0.904876 1.80832L 27.0951 1.80832C 27.5952 1.80832 28 1.40381 28 0.904161C 28 0.404961 27.5952 3.0523e-08 27.0951 3.0523e-08L 0.904876 3.0523e-08C 0.404837 3.0523e-08 -2.33346e-09 0.404961 -2.33346e-09 0.904161C -2.33346e-09 1.40336 0.404837 1.80832 0.904876 1.80832Z"/>
<path id="path1_fill" d="M 27.0951 -2.71316e-07L 0.904876 -2.71316e-07C 0.404837 -2.71316e-07 -2.33346e-09 0.405405 -2.33346e-09 0.904605C -2.33346e-09 1.40336 0.404837 1.80877 0.904876 1.80877L 27.0951 1.80877C 27.5952 1.80877 28 1.40336 28 0.904605C 28 0.405405 27.5952 -2.71316e-07 27.0951 -2.71316e-07Z"/>
<path id="path2_fill" d="M 27.0951 -2.44184e-07L 0.904876 -2.44184e-07C 0.404837 -2.44184e-07 -2.33346e-09 0.404516 -2.33346e-09 0.904161C -2.33346e-09 1.40336 0.404837 1.80832 0.904876 1.80832L 27.0951 1.80832C 27.5952 1.80832 28 1.40336 28 0.904161C 28 0.404516 27.5952 -2.44184e-07 27.0951 -2.44184e-07Z"/>
</defs>
</svg>
